<svg version="1.0" xmlns="http://www.w3.org/2000/svg"
 width="400.000000pt" height="400.000000pt" viewBox="0 0 400.000000 400.000000"
 preserveAspectRatio="xMidYMid meet">

<g transform="translate(0.000000,400.000000) scale(0.100000,-0.100000)"
fill="#000000" stroke="none">
<path d="M1655 3953 c-489 -30 -842 -105 -1002 -214 -66 -44 -191 -172 -240
-244 -55 -82 -115 -204 -146 -300 -72 -218 -85 -397 -69 -942 13 -425 20 -536
52 -765 86 -614 299 -1007 639 -1177 210 -106 573 -174 926 -174 216 1 351 16
512 58 95 25 250 81 256 93 5 9 -9 301 -14 306 -2 2 -43 -6 -90 -19 -258 -69
-657 -77 -899 -19 -192 47 -311 156 -364 333 -19 64 -33 211 -20 211 5 0 63
-11 129 -25 287 -58 549 -80 850 -72 226 7 495 34 646 66 355 74 680 289 781
516 47 105 80 387 99 827 15 360 1 546 -56 743 -31 108 -97 249 -156 336 -56
84 -200 225 -273 268 -156 93 -489 164 -891 191 -136 9 -545 11 -670 3z m-110
-638 c150 -39 257 -125 345 -279 30 -52 57 -95 60 -96 3 0 30 43 60 96 114
200 268 294 480 294 207 0 381 -93 490 -261 49 -76 76 -163 90 -284 5 -49 10
-307 10 -572 l0 -483 -200 0 -200 0 0 473 c0 393 -3 483 -15 532 -40 153 -173
235 -318 194 -58 -16 -139 -100 -168 -174 -23 -58 -24 -71 -27 -382 l-3 -323
-200 0 -199 0 0 303 c0 317 -5 359 -48 442 -26 51 -87 110 -134 130 -58 24
-135 19 -196 -11 -58 -29 -90 -65 -124 -140 -23 -49 -23 -53 -26 -546 l-3
-498 -200 0 -199 0 0 474 c0 494 8 634 40 739 54 175 213 322 400 371 73 19
212 20 285 1z"/>
</g>
</svg>
